<?xml version="1.0" encoding="UTF-8" standalone="no"?>
<!-- Created with Inkscape (http://www.inkscape.org/) -->

<svg
   width="510.67355"
   height="532.90875"
   viewBox="0 0 510.67355 532.90875"
   version="1.1"
   id="svg1"
   xmlns="http://www.w3.org/2000/svg"
   xmlns:svg="http://www.w3.org/2000/svg">
  <defs
     id="defs1">
    <clipPath
       clipPathUnits="userSpaceOnUse"
       id="clipPath8">
      <path
         d="m 178.12804,97.453194 v 33.347936 l 26.43815,0.14232 c 2e-5,-3.75329 4.59122,-11.99481 0.0148,-11.99481 -1.0781,0 -3.82408,-0.002 -4.32719,-0.002 -2.98602,0 -1.83306,-10.74689 0.35937,-10.74689 1.95775,0 0.91956,0 3.95303,0 0.35937,0 -2e-5,-6.20716 -4e-5,-10.604584 z"
         style="fill:#ff0000;stroke-width:0;stroke-miterlimit:1"
         id="path8" />
    </clipPath>
  </defs>
  <g
     id="layer1"
     transform="translate(-1.3264529,10.454394)">
    <path
       d="m 337.53466,486.6963 q -71.59474,0 -118.87428,-31.06941 -47.27954,-31.06942 -70.91931,-87.12944 -22.96434,-56.06003 -22.96434,-131.03187 0,-74.97184 22.96434,-130.35644 23.63977,-55.384609 70.91931,-85.778598 47.95497,-31.0694122 119.5497,-31.0694122 68.21762,0 114.82174,31.0694122 47.27954,30.393989 71.59473,86.454018 24.99061,55.3846 24.99061,130.35644 0,74.97184 -24.99061,131.03187 -24.31519,55.3846 -71.59473,86.45402 -47.27954,31.06941 -115.49716,31.06941 z m 0,-36.47279 q 75.64726,0 106.04125,-56.06003 31.06941,-56.06002 31.06941,-156.02248 0,-100.63787 -31.06941,-156.022479 -30.39399,-55.384603 -105.36583,-55.384603 -75.64727,0 -107.3921,55.384603 -31.06941,55.384609 -31.06941,156.022479 0,99.96246 31.06941,156.02248 31.74483,56.06003 106.71668,56.06003 z"
       id="text2"
       style="font-size:675.422px;font-family:Serif;-inkscape-font-specification:'Serif, Normal';text-align:center;letter-spacing:-14.0517px;word-spacing:-43.2791px;text-anchor:middle;fill:#f9f9f9;stroke-width:0;stroke-miterlimit:1"
       transform="scale(0.93155753,1.073471)"
       aria-label="O" />
    <path
       d="m 175.31983,130.80114 v -1.96165 h 0.60717 q 1.588,0 2.70894,-0.56047 1.12094,-0.60717 1.12094,-2.80235 v -22.88584 q 0,-2.05505 -1.16765,-2.615522 -1.12094,-0.56047 -2.66223,-0.56047 h -0.60717 v -1.961644 h 8.54716 l 16.72068,25.828306 v -20.69067 q 0,-2.05505 -1.16765,-2.615522 -1.12094,-0.56047 -2.66223,-0.56047 h -0.60718 v -1.961644 h 11.72316 v 1.961644 h -0.60718 q -1.58799,0 -2.70893,0.607172 -1.12094,0.56047 -1.12094,2.75565 v 28.02348 h -3.31611 l -17.51468,-26.90255 v 21.57808 q 0,2.19518 1.12094,2.80235 1.12094,0.56047 2.70894,0.56047 h 0.60717 v 1.96165 z"
       id="text1"
       clip-path="url(#clipPath8)"
       style="font-size:46.7058px;font-family:Serif;-inkscape-font-specification:'Serif, Normal';text-align:center;letter-spacing:-1px;word-spacing:-3.08px;text-anchor:middle;white-space:pre;fill:#f9f9f9;stroke-width:0;stroke-miterlimit:1"
       transform="matrix(13.913346,0,0,15.353272,-2477.0306,-1496.2254)"
       aria-label="N" />
  </g>
</svg>
